<?xml version="1.0" encoding="utf-8"?>
<!-- Generator: Adobe Illustrator 24.1.0, SVG Export Plug-In . SVG Version: 6.00 Build 0)  -->
<svg version="1.1" id="Layer_1" xmlns="http://www.w3.org/2000/svg" xmlns:xlink="http://www.w3.org/1999/xlink" x="0px" y="0px"
	 viewBox="0 0 100 100" style="enable-background:new 0 0 100 100;" xml:space="preserve">
<style type="text/css">
	.st0{fill:#3F0791;}
	.st1{fill:#FFFFFF;}
	.st2{fill:none;}
	.st3{fill:none;stroke:#FFFFFF;stroke-width:1.8166;stroke-miterlimit:10;}
</style>
<g>
	<circle class="st0" cx="49.66" cy="51.05" r="50"/>
	<g>
		<g>
			<path class="st1" d="M26.08,74.25c-0.65,0.72-0.16,1.78,0.84,3.11c1.5,1.98,1.76,3.49,0.62,4.76c-1.22,1.36-3.39,1.25-5.21-0.39
				c-0.75-0.68-1.29-1.49-1.63-2.45c-0.32-0.96-0.22-2,0.31-3.15l1.84,0.33c-0.87,1.53-0.66,2.99,0.56,4.09
				c1.07,0.96,2.18,1.13,2.78,0.46c0.57-0.63,0.41-1.47-0.74-2.92c-1.53-1.95-1.89-3.56-0.63-4.95c1.05-1.17,3.06-1.16,4.7,0.32
				c1.32,1.19,1.8,2.89,1.14,4.51l-1.79-0.39c0.6-1.1,0.45-2.15-0.53-3.03C27.5,73.79,26.57,73.71,26.08,74.25z"/>
			<path class="st1" d="M40.25,80.11l-0.69,1.44l-5.47-2.6l-1.18,2.47l5.06,2.41l-0.69,1.44l-5.06-2.41l-1.34,2.82l5.61,2.67
				l-0.69,1.44l-7.11-3.38l4.57-9.62L40.25,80.11z"/>
			<path class="st1" d="M42.97,80.66l-1.37,8.95l6.29,0.96l-0.24,1.58l-7.93-1.21l1.61-10.53L42.97,80.66z"/>
			<path class="st1" d="M51.72,81.34l1.23,8.97l6.3-0.86l0.22,1.58l-7.95,1.08l-1.44-10.55L51.72,81.34z"/>
			<path class="st1" d="M65.8,76.98l0.66,1.45l-5.51,2.51l1.14,2.49l5.1-2.33l0.66,1.45l-5.1,2.33l1.29,2.84l5.65-2.58l0.66,1.45
				l-7.17,3.27l-4.42-9.69L65.8,76.98z"/>
			<path class="st1" d="M78.63,80.08c-0.27-0.1-0.54-0.27-0.8-0.47c-0.27-0.21-0.63-0.58-1.1-1.1c-0.98-1.1-1.81-1.04-2.73-0.22
				l-1.93,1.71l2.92,3.3l-1.25,1.1l-7.06-7.97l3.8-3.36c1.6-1.42,3.39-1.31,4.47-0.1c0.9,1.01,0.96,2.27,0.28,3.51
				c1.04-0.38,1.98-0.19,2.92,0.79c0.44,0.45,0.77,0.76,1.01,0.96c0.24,0.18,0.52,0.29,0.83,0.32l0.16,0.18L78.63,80.08z
				 M73.46,76.63c0.86-0.76,1-1.61,0.35-2.34s-1.51-0.7-2.37,0.07L69,76.52l2.02,2.28L73.46,76.63z"/>
		</g>
	</g>
	<g>
		<path class="st2" d="M62.75,57.65c0.36-0.21,0.69-0.43,0.94-0.65c1.65-1.4,1.92-4.97-0.26-5.6l-0.59,0.19
			c1.99-1.77,1.77-3.69,0.82-5.17c-1.03-1.6-3.22-1.98-5.74-2.09c-2.52-0.11-7.19,0.61-7.19,0.61c1.26-3.89,0.04-8.47-1.39-10.26
			c-1.97-2.46-4.49-3.71-6-3.35c-1.51,0.35-2.12,1.58-1.6,3.79c0.27,1.14,0.71,2.1,1.17,3.1c1.55,3.42,0.64,7.64-2.39,9.59
			l-3.43,0.82c-1.87,0.65-3.09,3.23-2.7,8.32c0.39,5.09,1.64,6.87,2.03,7.42c0.4,0.55,0.89,0.82,1.45,0.94
			c0.56,0.11,3.76-0.21,4.88-0.55l0.09-0.1c0.76,0.68,1.69,1.24,2.71,1.55c2.38,0.73,4.62,0.61,5.96,0.21
			c0.02,0.01,0.03,0.02,0.05,0.04c1.23,0.86,3.8,1.27,5.52,1.11c1.72-0.17,4.05-0.73,5.1-1.56c0.99-0.79,0.99-2.23,0.05-3.48
			c0.75-0.4,1.37-0.87,1.72-1.38C64.78,59.89,64.22,58.13,62.75,57.65z"/>
		<g>
			<path class="st3" d="M61.98,62.23c1.18,1.3,1.26,2.92,0.19,3.77c-1.04,0.84-3.38,1.4-5.1,1.56c-1.72,0.17-4.28-0.25-5.52-1.11
				c-1.53-1.07-1.41-3.08,0.26-3.33"/>
			<path class="st3" d="M62.93,57.72c1.34,0.56,1.82,2.23,1.01,3.42c-0.98,1.46-4.2,2.54-6.1,2.73c-1.91,0.19-5.98,0.13-7.14-1.67
				c-0.76-1.17-0.26-2.05,0.51-2.75"/>
			<path class="st3" d="M51.56,55.13c-1.84,0.07-2.6,2.87-0.81,4.02c1.79,1.15,4.92,0.77,6.58,0.52s4.98-1.51,6.36-2.67
				c1.65-1.4,1.92-4.97-0.26-5.6"/>
			<path class="st3" d="M42.76,64.75c-1.12,0.34-4.32,0.66-4.88,0.55c-0.56-0.11-1.06-0.38-1.45-0.94c-0.4-0.55-1.64-2.33-2.03-7.42
				s0.82-7.67,2.7-8.32l3.43-0.82c3.02-1.95,3.94-6.17,2.39-9.59c-0.46-1-0.9-1.96-1.17-3.1c-0.52-2.21,0.09-3.44,1.6-3.79
				c1.51-0.35,4.02,0.89,6,3.35c1.43,1.79,2.65,6.37,1.39,10.26c0,0,4.68-0.72,7.19-0.61c2.52,0.11,4.71,0.49,5.74,2.09
				c1.03,1.6,1.21,3.73-1.39,5.63c-2.64,1.93-6.74,2.78-8.99,3.03s-3.33-0.08-3.9-1.34c-0.57-1.26,0.23-2.86,1.83-3.78
				c1.6-0.92,6.72-2.4,6.72-2.4"/>
			<path class="st3" d="M51.82,66.32c-1.28,0.47-3.69,0.67-6.26-0.11c-2.57-0.78-4.58-3.13-4.69-5.14"/>
		</g>
	</g>
	<g>
		<g>
			<path class="st1" d="M28.35,15.85l4.52-2.14c1.77-0.84,3.61-0.35,4.29,1.08c0.45,0.95,0.27,1.96-0.5,2.84
				c1.27-0.26,2.38,0.25,2.96,1.46c0.71,1.5-0.14,3.27-1.91,4.1l-4.79,2.27L28.35,15.85z M34.69,17.73
				c1.08-0.51,1.42-1.25,1.02-2.08c-0.37-0.78-1.28-0.91-2.23-0.46l-2.94,1.39l1.21,2.54L34.69,17.73z M36.95,21.79
				c0.97-0.46,1.38-1.33,0.99-2.15c-0.37-0.78-1.34-1.13-2.33-0.67L32.4,20.5l1.34,2.82L36.95,21.79z"/>
			<path class="st1" d="M47.86,9.96l0.22,1.58l-6,0.84l0.38,2.71l5.55-0.78l0.22,1.58l-5.55,0.78l0.43,3.09l6.15-0.86l0.22,1.58
				l-7.8,1.1l-1.47-10.55L47.86,9.96z"/>
			<path class="st1" d="M53.17,12.96c-0.14,0.96,0.86,1.57,2.43,2.12c2.34,0.81,3.41,1.92,3.17,3.61c-0.26,1.81-2.12,2.92-4.55,2.58
				c-1-0.14-1.9-0.52-2.71-1.13c-0.8-0.62-1.29-1.54-1.5-2.78l1.71-0.75c0.13,1.76,1.12,2.85,2.74,3.08
				c1.42,0.2,2.44-0.28,2.57-1.17c0.12-0.84-0.48-1.45-2.23-2.01c-2.35-0.77-3.55-1.91-3.28-3.76c0.22-1.55,1.9-2.66,4.08-2.35
				c1.75,0.25,3.1,1.4,3.45,3.11l-1.7,0.68c-0.11-1.25-0.82-2.04-2.13-2.23C54.09,11.79,53.27,12.24,53.17,12.96z"/>
			<path class="st1" d="M70.33,17.25l-3.51-1.61l-3.78,8.23l-1.51-0.69l3.78-8.23l-3.51-1.61l0.67-1.45L71,15.8L70.33,17.25z"/>
		</g>
	</g>
</g>
</svg>
