<?xml version="1.0" encoding="utf-8"?>
<!-- Generator: Adobe Illustrator 24.1.2, SVG Export Plug-In . SVG Version: 6.00 Build 0)  -->
<svg version="1.1" id="Layer_1" xmlns="http://www.w3.org/2000/svg" xmlns:xlink="http://www.w3.org/1999/xlink" x="0px" y="0px"
	 viewBox="0 0 80 80" style="enable-background:new 0 0 80 80;" xml:space="preserve">
<style type="text/css">
	.st0{fill:url(#SVGID_1_);}
	.st1{fill:#3F0791;}
</style>
<g>
	
		<linearGradient id="SVGID_1_" gradientUnits="userSpaceOnUse" x1="11.8815" y1="13.8815" x2="65.9222" y2="67.9222" gradientTransform="matrix(1 0 0 -1 0 82)">
		<stop  offset="0.1163" style="stop-color:#F7EF79"/>
		<stop  offset="0.2403" style="stop-color:#F3EE7F"/>
		<stop  offset="0.4057" style="stop-color:#E7EC90"/>
		<stop  offset="0.5945" style="stop-color:#D3E9AC"/>
		<stop  offset="0.7988" style="stop-color:#B9E4D2"/>
		<stop  offset="1" style="stop-color:#99DFFF"/>
	</linearGradient>
	<path class="st0" d="M80,40c0,4.7-11,7.2-12.7,11.3c-1.8,4.2,4.2,13.8,1,17c-3.2,3.2-12.7-2.8-17-1C47.2,69,44.7,80,40,80
		s-7.2-11-11.3-12.7c-4.2-1.8-13.8,4.2-17,1c-3.2-3.2,2.8-12.7,1-17C11,47.2,0,44.7,0,40s11-7.2,12.7-11.3c1.8-4.2-4.2-13.8-1-17
		s12.7,2.8,17,1C32.8,11,35.3,0,40,0s7.2,11,11.3,12.7c4.2,1.8,13.8-4.2,17-1s-2.8,12.7-1,17C69,32.8,80,35.3,80,40z"/>
	<g>
		<path class="st1" d="M21.2,46h-2.4V33.4H23l5.2,10.9V33.4h2.4V46h-4.2l-5.2-10.9V46z"/>
		<path class="st1" d="M42.8,33.4v2.2h-7v2.7h6.5v2.2h-6.5v3.1H43V46h-9.6V33.4H42.8z"/>
		<path class="st1" d="M44.3,33.4h2.5l2.2,11l2.2-11h4.1l2.2,11l2.2-11h2.5L59.6,46h-4l-2.3-11L51,46h-4L44.3,33.4z"/>
	</g>
</g>
</svg>
