<?xml version="1.0" encoding="utf-8"?>
<!-- Generator: Adobe Illustrator 24.1.2, SVG Export Plug-In . SVG Version: 6.00 Build 0)  -->
<svg version="1.1" id="Layer_1" xmlns="http://www.w3.org/2000/svg" xmlns:xlink="http://www.w3.org/1999/xlink" x="0px" y="0px"
	 viewBox="0 0 104.49 75.77" style="enable-background:new 0 0 104.49 75.77;" xml:space="preserve">
<style type="text/css">
	.st0{fill:url(#SVGID_1_);}
	.st1{fill:#FFFFFF;}
</style>
<g>
	
		<linearGradient id="SVGID_1_" gradientUnits="userSpaceOnUse" x1="79.0128" y1="1807.3726" x2="141.0614" y2="1745.3239" gradientTransform="matrix(0.892 -0.452 0.452 0.892 -849.3248 -1495.2455)">
		<stop  offset="0.1163" style="stop-color:#5B00ED"/>
		<stop  offset="0.2025" style="stop-color:#5D06ED"/>
		<stop  offset="0.3174" style="stop-color:#6517EF"/>
		<stop  offset="0.4487" style="stop-color:#7033F1"/>
		<stop  offset="0.592" style="stop-color:#805AF4"/>
		<stop  offset="0.7452" style="stop-color:#958BF7"/>
		<stop  offset="0.9041" style="stop-color:#AEC7FC"/>
		<stop  offset="1" style="stop-color:#BFEFFF"/>
	</linearGradient>
	<path class="st0" d="M102.12,12.62c10.18,20.1-14.37,41.12-36.23,52.2S12.56,83.25,2.37,63.16s14.37-41.12,36.23-52.2
		S91.94-7.48,102.12,12.62z"/>
	<g>
		<g>
			<g>
				<path class="st1" d="M17.79,48.39l4.68,9.23l6.5-3.29l1.02,2.01l-8.66,4.39l-5.7-11.24L17.79,48.39z"/>
				<path class="st1" d="M26.3,44.08l2.16-1.09l5.7,11.24L32,55.32L26.3,44.08z"/>
				<path class="st1" d="M47.91,47.26L42.8,37.17L45,48.73l-3.28,1.66l-8.04-8.6l5.11,10.09l-2.16,1.09l-5.7-11.24l3.96-2.01
					l7.63,8.24l-2.12-11.04l3.95-2l5.7,11.24L47.91,47.26z"/>
				<path class="st1" d="M46.86,33.66l2.16-1.09l5.7,11.24l-2.16,1.09L46.86,33.66z"/>
				<path class="st1" d="M61.91,28.56l-3.95,2l4.68,9.24l-2.16,1.09l-4.68-9.24l-3.96,2.01l-1.02-2.01l10.07-5.1L61.91,28.56z"/>
				<path class="st1" d="M71.1,21.38l1.02,2.01l-6.25,3.17l1.24,2.44l5.77-2.92l1.02,2.01L68.12,31l1.41,2.78l6.41-3.25l1.02,2.01
					l-8.56,4.34l-5.7-11.24L71.1,21.38z"/>
				<path class="st1" d="M73.37,20.23l4.31-2.19c3.71-1.88,6.96-0.64,8.69,2.76c1.62,3.2,0.67,6.63-2.95,8.46l-4.36,2.21
					L73.37,20.23z M80.22,28.4l2.16-1.09c2.41-1.22,2.85-3.4,1.84-5.41c-1.16-2.3-3.16-3.1-5.57-1.88l-2.13,1.08L80.22,28.4z"/>
			</g>
		</g>
	</g>
</g>
</svg>
