<?xml version="1.0" encoding="utf-8"?>
<!-- Generator: Adobe Illustrator 24.1.0, SVG Export Plug-In . SVG Version: 6.00 Build 0)  -->
<svg version="1.1" id="Layer_1" xmlns="http://www.w3.org/2000/svg" xmlns:xlink="http://www.w3.org/1999/xlink" x="0px" y="0px"
	 viewBox="0 0 552.91 236.62" style="enable-background:new 0 0 552.91 236.62;" xml:space="preserve">
<style type="text/css">
	.st0{fill:url(#SVGID_1_);}
	.st1{fill:url(#SVGID_2_);}
	.st2{fill:url(#SVGID_3_);}
	.st3{fill:#D6D5FF;stroke:#5B00E9;stroke-width:0.9886;stroke-linejoin:round;stroke-miterlimit:10;stroke-dasharray:5.1953;}
</style>
<g>
	<linearGradient id="SVGID_1_" gradientUnits="userSpaceOnUse" x1="462.6121" y1="108.4263" x2="462.6121" y2="0">
		<stop  offset="0" style="stop-color:#D6D5FF"/>
		<stop  offset="1" style="stop-color:#5B00E9"/>
	</linearGradient>
	<path class="st0" d="M462.78,0c-9.67,0-19.4,3.41-25.2,10.62c-4.7,5.84-5.16,13.22-8.55,19.66c-3.05,5.8-7.46,10.91-13.12,14.42
		c-8.03,4.99-12.53,12.37-14.76,21.16c-2.3,9.05-7.56,16.04-15.85,20.74c-13.86,7.86-12.96,21.82-12.96,21.82h180.56
		c0,0,0.9-14.44-12.96-22.29c-8.29-4.7-13.55-11.69-15.85-20.74c-2.24-8.8-6.73-16.18-14.77-21.16
		c-5.65-3.51-10.07-8.62-13.12-14.42c-3.39-6.44-3.86-13.82-8.55-19.66C481.83,2.91,472.68,0.12,463.05,0
		C462.96,0,462.87,0,462.78,0z"/>
	<g>
		<linearGradient id="SVGID_2_" gradientUnits="userSpaceOnUse" x1="47.5601" y1="96.4904" x2="47.5601" y2="29.4104">
			<stop  offset="0" style="stop-color:#5B00E9"/>
			<stop  offset="0.1734" style="stop-color:#6D20EC"/>
			<stop  offset="0.5546" style="stop-color:#9C70F5"/>
			<stop  offset="1" style="stop-color:#D6D5FF"/>
		</linearGradient>
		<path class="st1" d="M59.96,34.71c-5.01,0.8-9.2,2.85-12.4,5.95c-3.2-3.1-7.39-5.15-12.4-5.95c-6.31-1.01-11.79,0.27-12.4,0.42
			c-3.25,0.8-5.23,4.08-4.42,7.33c0.8,3.25,4.08,5.23,7.33,4.42c0.04-0.01,3.69-0.84,7.58-0.22c4.33,0.69,6.98,2.85,8.29,6.7
			c0.04,0.23,0.09,0.45,0.15,0.67c-12.27-6.49-26.06-4.81-33.2-2.23c-4.11,1.49-6.26,6.03-4.78,10.14c1.49,4.11,6,6.25,10.11,4.76
			c0.68-0.24,16.02-5.38,26.17,5.79c-5.31-2.33-10.67-3.26-16.05-2.74C10.38,71.08,2.46,81.06,1.61,82.19
			c-2.64,3.48-1.95,8.45,1.53,11.09c1.43,1.08,3.11,1.6,4.77,1.6c2.39,0,4.76-1.08,6.32-3.14c0.04-0.06,4.49-5.57,11.24-6.21
			c4.99-0.49,10.42,1.78,16.14,6.71c0,0,0,0,0,0.01c1.5,1.67,3.54,2.55,5.62,2.62c0.08,0,0.15,0,0.23,0c0.03,0,0.07,0,0.1,0
			c0.03,0,0.07,0,0.1,0c0.08,0,0.15,0,0.23,0c2.08-0.07,4.12-0.95,5.61-2.62c0,0,0,0,0.01-0.01c5.73-4.93,11.15-7.2,16.14-6.71
			c6.74,0.65,11.2,6.16,11.24,6.21c1.56,2.06,3.92,3.14,6.32,3.14c1.67,0,3.34-0.52,4.77-1.6c3.49-2.64,4.17-7.61,1.53-11.09
			c-0.86-1.13-8.77-11.11-22.34-12.42c-5.38-0.52-10.74,0.41-16.05,2.74c10.16-11.16,25.5-6.03,26.17-5.79
			c4.11,1.48,8.63-0.65,10.11-4.76c1.49-4.11-0.67-8.66-4.78-10.14c-7.14-2.58-20.93-4.25-33.2,2.23c0.06-0.22,0.11-0.44,0.15-0.67
			c1.31-3.86,3.96-6.01,8.29-6.7c3.89-0.62,7.54,0.21,7.58,0.22c3.25,0.81,6.53-1.18,7.33-4.42c0.8-3.25-1.18-6.53-4.42-7.33
			c-0.44-0.11-3.41-0.81-7.41-0.81C63.41,34.33,61.72,34.43,59.96,34.71"/>
		<linearGradient id="SVGID_3_" gradientUnits="userSpaceOnUse" x1="27.4172" y1="142.841" x2="62.9009" y2="142.841">
			<stop  offset="0" style="stop-color:#D6D5FF"/>
			<stop  offset="0.1859" style="stop-color:#BEABFB"/>
			<stop  offset="0.7509" style="stop-color:#7731EE"/>
			<stop  offset="1" style="stop-color:#5B00E9"/>
		</linearGradient>
		<path class="st2" d="M61.92,174.28L61.92,174.28C61.92,174.28,61.92,174.28,61.92,174.28L61.92,174.28z M37.63,93.04l-0.25,5
			c-0.23,4.27-1.3,6.3-2.43,8.44c-1.13,2.14-2.3,4.35-2.54,8.83c-0.24,4.48,0.67,6.8,1.56,9.05c0.89,2.26,1.73,4.39,1.5,8.66
			c-0.23,4.27-1.3,6.3-2.43,8.45c-1.02,1.94-2.07,3.95-2.44,7.63l0,0.01l0,0.02c-0.04,0.37-0.07,0.76-0.09,1.17
			c-0.24,4.48,0.67,6.8,1.56,9.05c0.89,2.26,1.73,4.39,1.5,8.66c-0.23,4.27-1.3,6.3-2.43,8.45c-1.13,2.14-2.29,4.35-2.54,8.83v17.37
			h37.96v-17.37c-0.12-2.22-0.47-3.89-0.93-5.27v0c-0.47-1.39-1.04-2.49-1.61-3.56c-1.13-2.15-2.2-4.17-2.43-8.45
			c-0.23-4.27,0.61-6.4,1.5-8.66c0.89-2.25,1.81-4.58,1.56-9.05c-0.24-4.47-1.41-6.69-2.54-8.83c-1.13-2.15-2.2-4.17-2.43-8.45
			c-0.23-4.27,0.61-6.4,1.5-8.66c0.89-2.25,1.81-4.58,1.56-9.05c-0.24-4.47-1.41-6.68-2.54-8.83c-0.83-1.57-1.62-3.09-2.08-5.46
			l-0.35-2.98l-0.09-5c0-5.53-4.48-10.01-10.01-10.01C42.11,83.03,37.63,87.51,37.63,93.04"/>
	</g>
	<g>
		<polygon class="st3" points="74.25,9.66 202.89,13.11 202.07,192.03 74.94,201.66 58.54,194.85 57.89,11.99 		"/>
		<line class="st3" x1="74.94" y1="201.66" x2="74.25" y2="9.66"/>
	</g>
	<g>
		<polygon class="st3" points="172.26,20.45 300.89,23.91 300.07,202.82 172.94,212.45 156.54,205.65 155.89,22.78 		"/>
		<line class="st3" x1="172.94" y1="212.45" x2="172.26" y2="20.45"/>
	</g>
	<g>
		<g>
			<polygon class="st3" points="269.26,32.84 397.89,36.29 397.07,215.21 269.94,224.84 253.54,218.03 252.89,35.17 			"/>
			<line class="st3" x1="269.94" y1="224.84" x2="269.26" y2="32.84"/>
		</g>
	</g>
	<g>
		<polygon class="st3" points="365.69,44.13 494.32,47.58 493.5,226.5 366.37,236.13 349.97,229.33 349.32,46.46 		"/>
		<line class="st3" x1="366.37" y1="236.13" x2="365.69" y2="44.13"/>
	</g>
</g>
</svg>
