<?xml version="1.0" encoding="utf-8"?>
<!-- Generator: Adobe Illustrator 24.2.1, SVG Export Plug-In . SVG Version: 6.00 Build 0)  -->
<svg version="1.1" id="Layer_1" xmlns="http://www.w3.org/2000/svg" xmlns:xlink="http://www.w3.org/1999/xlink" x="0px" y="0px"
	 viewBox="0 0 552.9 236.6" style="enable-background:new 0 0 552.9 236.6;" xml:space="preserve">
<style type="text/css">
	.st0{fill:url(#SVGID_1_);}
	.st1{fill:url(#SVGID_2_);}
	.st2{fill:url(#SVGID_3_);}
	.st3{fill:#D6D5FF;stroke:#5B00E9;stroke-width:0.9886;stroke-linejoin:round;stroke-miterlimit:10;stroke-dasharray:5.1953;}
</style>
<g>
	
		<linearGradient id="SVGID_1_" gradientUnits="userSpaceOnUse" x1="462.62" y1="129.58" x2="462.62" y2="238" gradientTransform="matrix(1 0 0 -1 0 238)">
		<stop  offset="0" style="stop-color:#D6D5FF"/>
		<stop  offset="1" style="stop-color:#5B00E9"/>
	</linearGradient>
	<path class="st0" d="M462.8,0c-9.7,0-19.4,3.4-25.2,10.6c-4.7,5.8-5.2,13.2-8.5,19.7c-3,5.8-7.5,10.9-13.1,14.4
		c-8,5-12.5,12.4-14.8,21.2c-2.3,9.1-7.6,16-15.9,20.7c-13.9,7.9-13,21.8-13,21.8h180.6c0,0,0.9-14.4-13-22.3
		c-8.3-4.7-13.5-11.7-15.8-20.7c-2.2-8.8-6.7-16.2-14.8-21.2c-5.6-3.5-10.1-8.6-13.1-14.4c-3.4-6.4-3.9-13.8-8.5-19.7
		c-5.8-7.2-15-10-24.6-10.1C463,0,462.9,0,462.8,0z"/>
	<g>
		
			<linearGradient id="SVGID_2_" gradientUnits="userSpaceOnUse" x1="47.5615" y1="141.5096" x2="47.5615" y2="208.5896" gradientTransform="matrix(1 0 0 -1 0 238)">
			<stop  offset="0" style="stop-color:#5B00E9"/>
			<stop  offset="0.1734" style="stop-color:#6D20EC"/>
			<stop  offset="0.5546" style="stop-color:#9C70F5"/>
			<stop  offset="1" style="stop-color:#D6D5FF"/>
		</linearGradient>
		<path class="st1" d="M60,34.7c-5,0.8-9.2,2.8-12.4,6c-3.2-3.1-7.4-5.2-12.4-6c-6.3-1-11.8,0.3-12.4,0.4c-3.2,0.8-5.2,4.1-4.4,7.3
			c0.8,3.2,4.1,5.2,7.3,4.4c0,0,3.7-0.8,7.6-0.2c4.3,0.7,7,2.8,8.3,6.7c0,0.2,0.1,0.5,0.2,0.7c-12.3-6.5-26.1-4.8-33.2-2.2
			c-4.1,1.5-6.3,6-4.8,10.1c1.5,4.1,6,6.2,10.1,4.8c0.7-0.2,16-5.4,26.2,5.8c-5.3-2.3-10.7-3.3-16-2.7C10.4,71.1,2.5,81.1,1.6,82.2
			c-2.6,3.5-2,8.4,1.5,11.1c1.4,1.1,3.1,1.6,4.8,1.6c2.4,0,4.8-1.1,6.3-3.1c0-0.1,4.5-5.6,11.2-6.2c5-0.5,10.4,1.8,16.1,6.7
			c0,0,0,0,0,0c1.5,1.7,3.5,2.6,5.6,2.6c0.1,0,0.2,0,0.2,0c0,0,0.1,0,0.1,0s0.1,0,0.1,0c0.1,0,0.2,0,0.2,0c2.1-0.1,4.1-0.9,5.6-2.6
			c0,0,0,0,0,0c5.7-4.9,11.2-7.2,16.1-6.7c6.7,0.7,11.2,6.2,11.2,6.2c1.6,2.1,3.9,3.1,6.3,3.1c1.7,0,3.3-0.5,4.8-1.6
			c3.5-2.6,4.2-7.6,1.5-11.1c-0.9-1.1-8.8-11.1-22.3-12.4c-5.4-0.5-10.7,0.4-16,2.7c10.2-11.2,25.5-6,26.2-5.8
			c4.1,1.5,8.6-0.7,10.1-4.8c1.5-4.1-0.7-8.7-4.8-10.1c-7.1-2.6-20.9-4.2-33.2,2.2c0.1-0.2,0.1-0.4,0.2-0.7c1.3-3.9,4-6,8.3-6.7
			c3.9-0.6,7.5,0.2,7.6,0.2c3.2,0.8,6.5-1.2,7.3-4.4c0.8-3.2-1.2-6.5-4.4-7.3c-0.4-0.1-3.4-0.8-7.4-0.8C63.4,34.3,61.7,34.4,60,34.7
			"/>
		
			<linearGradient id="SVGID_3_" gradientUnits="userSpaceOnUse" x1="27.4172" y1="95.155" x2="62.9009" y2="95.155" gradientTransform="matrix(1 0 0 -1 0 238)">
			<stop  offset="0" style="stop-color:#D6D5FF"/>
			<stop  offset="0.1859" style="stop-color:#BEABFB"/>
			<stop  offset="0.7509" style="stop-color:#7731EE"/>
			<stop  offset="1" style="stop-color:#5B00E9"/>
		</linearGradient>
		<path class="st2" d="M61.9,174.3L61.9,174.3L61.9,174.3L61.9,174.3z M37.6,93l-0.2,5c-0.2,4.3-1.3,6.3-2.4,8.4s-2.3,4.3-2.5,8.8
			s0.7,6.8,1.6,9.1c0.9,2.3,1.7,4.4,1.5,8.7c-0.2,4.3-1.3,6.3-2.4,8.4c-1,1.9-2.1,3.9-2.4,7.6v0v0c0,0.4-0.1,0.8-0.1,1.2
			c-0.2,4.5,0.7,6.8,1.6,9.1c0.9,2.3,1.7,4.4,1.5,8.7s-1.3,6.3-2.4,8.4c-1.1,2.1-2.3,4.4-2.5,8.8v17.4h38v-17.4
			c-0.1-2.2-0.5-3.9-0.9-5.3l0,0c-0.5-1.4-1-2.5-1.6-3.6c-1.1-2.1-2.2-4.2-2.4-8.4c-0.2-4.3,0.6-6.4,1.5-8.7
			c0.9-2.2,1.8-4.6,1.6-9.1c-0.2-4.5-1.4-6.7-2.5-8.8c-1.1-2.1-2.2-4.2-2.4-8.4c-0.2-4.3,0.6-6.4,1.5-8.7c0.9-2.2,1.8-4.6,1.6-9.1
			c-0.2-4.5-1.4-6.7-2.5-8.8c-0.8-1.6-1.6-3.1-2.1-5.5l-0.3-3l-0.1-5c0-5.5-4.5-10-10-10C42.1,83,37.6,87.5,37.6,93"/>
	</g>
	<g>
		<polygon class="st3" points="72.4,9.7 186.1,12.7 185.4,171 73,179.5 58.5,173.5 57.9,11.7 		"/>
		<line class="st3" x1="73" y1="179.5" x2="72.4" y2="9.7"/>
	</g>
	<g>
		<polygon class="st3" points="134,21 247.8,24 247,182.3 134.6,190.8 120.1,184.8 119.5,23.1 		"/>
		<line class="st3" x1="134.6" y1="190.8" x2="134" y2="21"/>
	</g>
	<g>
		<polygon class="st3" points="195.6,32.3 309.4,35.4 308.7,193.6 196.2,202.1 181.7,196.1 181.2,34.4 		"/>
		<line class="st3" x1="196.2" y1="202.1" x2="195.6" y2="32.3"/>
	</g>
	<g>
		<g>
			<polygon class="st3" points="257.3,43.7 371,46.7 370.3,205 257.9,213.5 243.4,207.5 242.8,45.7 			"/>
			<line class="st3" x1="257.9" y1="213.5" x2="257.3" y2="43.7"/>
		</g>
	</g>
	<g>
		<polygon class="st3" points="318.9,55 432.7,58 432,216.3 319.5,224.8 305,218.8 304.4,57 		"/>
		<line class="st3" x1="319.5" y1="224.8" x2="318.9" y2="55"/>
	</g>
	<g>
		<polygon class="st3" points="380.5,66.3 494.3,69.4 493.6,227.6 381.2,236.1 366.6,230.1 366.1,68.4 		"/>
		<line class="st3" x1="381.2" y1="236.1" x2="380.5" y2="66.3"/>
	</g>
</g>
</svg>
