<svg xmlns="http://www.w3.org/2000/svg" xmlns:xlink="http://www.w3.org/1999/xlink" version="1.1" x="0px" y="0px" viewBox="0 0 90 112.5" enable-background="new 0 0 90 90" xml:space="preserve"><path d="M63.163,29.809c-0.031-0.011-0.068-0.016-0.104-0.021v-5.889c0-2-1.197-3.86-3.135-4.85c-1.876-0.953-4.204-0.953-6.079,0  c-0.427,0.219-0.803,0.484-1.15,0.776c-0.527-1.084-1.429-2.005-2.604-2.609c-1.876-0.953-4.204-0.953-6.079,0  c-0.864,0.443-1.568,1.063-2.098,1.781c-0.527-0.719-1.23-1.338-2.095-1.781c-1.875-0.953-4.203-0.948-6.078,0  c-1.219,0.625-2.141,1.594-2.661,2.724c-0.292-0.224-0.599-0.428-0.932-0.599c-1.876-0.954-4.21-0.954-6.084,0  c-1.933,0.984-3.136,2.843-3.136,4.848v19.652c-0.014,6.379,2.053,9.009,3.715,11.124c1.285,1.641,2.307,2.934,2.333,5.688v4.281  c0,7.26,3.916,8.677,10.686,8.677H49.46c6.761,0,10.678-1.417,10.678-8.677v-3.989c0.036-3.109,1.036-4.344,2.563-6.209  c1.812-2.224,4.067-4.99,5.546-11.828C69.783,35.887,69.439,31.492,63.163,29.809 M58.981,20.898c1.233,0.635,2,1.78,2,3v5.635  l-7.797-0.959c0.016-0.072,0.042-0.135,0.042-0.203v-6.016c0.349-0.593,0.891-1.109,1.563-1.457  C56.081,20.241,57.689,20.241,58.981,20.898z M49.148,19.065c1.233,0.635,2,1.78,2,3.004v6.256l-3.365-0.417  c-1.703,0-3.298,0.87-4.339,2.313L42.96,22.06c0-1.219,0.766-2.365,1.995-2.995C46.247,18.407,47.856,18.407,49.148,19.065z   M38.876,19.069c1.235,0.631,2.005,1.781,2.005,3l0.705,11.871c0,1.224-0.767,2.37-2,3c-1.292,0.656-2.902,0.656-4.193,0  c-1.235-0.63-2-1.776-2-3.057l-0.708-11.829c0.005-1.213,0.771-2.359,2-2.989C35.981,18.413,37.586,18.407,38.876,19.069z   M29.206,21.188c0.593,0.308,1.072,0.751,1.421,1.262l0.631,10.504c-0.142,1.067-0.839,2.053-1.943,2.614  c-1.292,0.658-2.901,0.658-4.199,0c-1.229-0.629-2-1.776-2-2.995c0-0.15-0.025-0.287-0.088-0.416l0.015-8.199  c0.095-1.135,0.813-2.182,1.964-2.765C26.305,20.533,27.914,20.533,29.206,21.188z M49.46,71.533H37.663  c-6.754,0-8.609-1.416-8.609-6.599V61.97h29.005v2.964C58.059,70.117,56.209,71.533,49.46,71.533 M61.086,53.418  c-1.448,1.775-2.71,3.354-2.97,6.475H29.007c-0.213-2.975-1.484-4.625-2.729-6.215c-1.615-2.052-3.282-4.17-3.271-9.833l0.016-7.197  c0.35,0.292,0.73,0.557,1.151,0.776c0.938,0.475,1.989,0.713,3.041,0.713c1.052,0,2.104-0.238,3.043-0.718  c0.618-0.313,1.156-0.729,1.609-1.198c0.53,1.067,1.421,1.979,2.583,2.572c0.938,0.475,1.989,0.715,3.041,0.715  s2.1-0.24,3.038-0.715c0.948-0.484,1.719-1.182,2.26-2.005c0.052,0.111,0.088,0.224,0.146,0.333c0.975,1.917,2.776,2.625,4.652,3.12  l0.921,0.178c-3,2.792-3.453,7.308-3.453,11.489c0,0.573,0.464,1.037,1.041,1.037c0.574,0,1.037-0.464,1.037-1.037  c0-4.443,0.484-8.828,3.984-10.854l5.975,1.011c0.562,0.109,1.109-0.262,1.219-0.829c0.104-0.562-0.262-1.109-0.828-1.214  l-9.434-1.807c-1.588-0.422-2.692-0.912-3.26-2.037c-0.661-1.291-0.661-2.895,0-4.192c0.626-1.234,1.771-1.995,2.869-2.005  l15.038,1.854c4.276,1.167,5.063,3.567,3.525,10.635C64.84,48.82,62.758,51.372,61.086,53.418z"/><text x="0" y="105" fill="#000000" font-size="5px" font-weight="bold" font-family="'Helvetica Neue', Helvetica, Arial-Unicode, Arial, Sans-serif">Created by Cuputo</text><text x="0" y="110" fill="#000000" font-size="5px" font-weight="bold" font-family="'Helvetica Neue', Helvetica, Arial-Unicode, Arial, Sans-serif">from the Noun Project</text></svg>