<?xml version="1.0" encoding="UTF-8"?>
<svg width="46px" height="46px" viewBox="0 0 46 46" version="1.1" xmlns="http://www.w3.org/2000/svg" xmlns:xlink="http://www.w3.org/1999/xlink">
    <title>svgexport-6</title>
    <defs>
        <linearGradient x1="14.851875%" y1="85.148125%" x2="82.40275%" y2="17.59725%" id="linearGradient-1">
            <stop stop-color="#F7EF79" offset="11.63%"></stop>
            <stop stop-color="#F3EE7F" offset="24.03%"></stop>
            <stop stop-color="#E7EC90" offset="40.57%"></stop>
            <stop stop-color="#D3E9AC" offset="59.45%"></stop>
            <stop stop-color="#B9E4D2" offset="79.88%"></stop>
            <stop stop-color="#99DFFF" offset="100%"></stop>
        </linearGradient>
    </defs>
    <g id="Page-1" stroke="none" stroke-width="1" fill="none" fill-rule="evenodd">
        <g id="Group-338" transform="translate(-1296.000000, -419.000000)" fill-rule="nonzero">
            <g id="svgexport-6" transform="translate(1296.000000, 419.000000)">
                <path d="M46,23 C46,25.7025 39.675,27.14 38.6975,29.4975 C37.6625,31.9125 41.1125,37.4325 39.2725,39.2725 C37.4325,41.1125 31.97,37.6625 29.4975,38.6975 C27.14,39.675 25.7025,46 23,46 C20.2975,46 18.86,39.675 16.5025,38.6975 C14.0875,37.6625 8.5675,41.1125 6.7275,39.2725 C4.8875,37.4325 8.3375,31.97 7.3025,29.4975 C6.325,27.14 0,25.7025 0,23 C0,20.2975 6.325,18.86 7.3025,16.5025 C8.3375,14.0875 4.8875,8.5675 6.7275,6.7275 C8.5675,4.8875 14.03,8.3375 16.5025,7.3025 C18.86,6.325 20.2975,0 23,0 C25.7025,0 27.14,6.325 29.4975,7.3025 C31.9125,8.3375 37.4325,4.8875 39.2725,6.7275 C41.1125,8.5675 37.6625,14.03 38.6975,16.5025 C39.675,18.86 46,20.2975 46,23 Z" id="Path" fill="url(#linearGradient-1)"></path>
                <path d="M20.584,32.74 L20.584,31.66 C21.448,31.564 22.13,31.288 22.63,30.832 C23.13,30.376 23.38,29.812 23.38,29.14 C23.38,28.396 23.166,27.842 22.738,27.478 C22.31,27.114 21.592,26.828 20.584,26.62 L20.584,26.62 L20.584,24.796 C20.976,24.972 21.268,25.36 21.46,25.96 L21.46,25.96 L23.02,25.156 C22.612,24.012 21.8,23.336 20.584,23.128 L20.584,23.128 L20.584,22 L19.144,22 L19.144,23.092 C18.368,23.204 17.76,23.472 17.32,23.896 C16.88,24.328 16.66,24.84 16.66,25.432 C16.66,26.816 17.488,27.684 19.144,28.036 L19.144,28.036 L19.144,29.896 C18.384,29.672 17.876,29.124 17.62,28.252 L17.62,28.252 L16,29.176 C16.552,30.6 17.6,31.42 19.144,31.636 L19.144,31.636 L19.144,32.74 L20.584,32.74 Z M19.144,26.224 C18.72,26.04 18.508,25.784 18.508,25.456 C18.508,25.28 18.564,25.126 18.676,24.994 C18.788,24.862 18.944,24.768 19.144,24.712 L19.144,24.712 L19.144,26.224 Z M20.584,29.968 L20.584,28.312 C20.92,28.408 21.158,28.524 21.298,28.66 C21.438,28.796 21.508,28.976 21.508,29.2 C21.508,29.608 21.2,29.864 20.584,29.968 L20.584,29.968 Z M27.448,31.696 C28.456,31.696 29.252,31.412 29.836,30.844 C30.42,30.276 30.712,29.52 30.712,28.576 C30.712,27.672 30.432,26.966 29.872,26.458 C29.312,25.95 28.604,25.696 27.748,25.696 C27.156,25.696 26.656,25.856 26.248,26.176 C26.312,25.776 26.344,25.336 26.344,24.856 L26.344,24.856 L30.328,24.856 L30.328,23.176 L24.688,23.176 C24.688,23.992 24.664,24.748 24.616,25.444 C24.568,26.132 24.472,26.916 24.328,27.796 L24.328,27.796 L26.068,28.216 C26.308,27.616 26.768,27.316 27.448,27.316 C27.88,27.316 28.232,27.444 28.504,27.7 C28.776,27.956 28.912,28.288 28.912,28.696 C28.912,29.088 28.78,29.406 28.516,29.65 C28.252,29.894 27.896,30.016 27.448,30.016 C27.032,30.016 26.694,29.902 26.434,29.674 C26.174,29.446 26.012,29.12 25.948,28.696 L25.948,28.696 L24.208,29.188 C24.312,30.012 24.668,30.636 25.276,31.06 C25.884,31.484 26.608,31.696 27.448,31.696 Z" id="$5" fill="#3F0791"></path>
                <path d="M13.97,20.48 C14.756,20.48 15.38,20.3015 15.842,19.9445 C16.304,19.5875 16.535,19.127 16.535,18.563 C16.535,17.987 16.361,17.561 16.013,17.285 C15.665,17.009 15.08,16.793 14.258,16.637 C13.82,16.553 13.49,16.4465 13.268,16.3175 C13.046,16.1885 12.935,16.016 12.935,15.8 C12.935,15.632 13.0145,15.4925 13.1735,15.3815 C13.3325,15.2705 13.538,15.215 13.79,15.215 C14.126,15.215 14.399,15.2975 14.609,15.4625 C14.819,15.6275 14.981,15.89 15.095,16.25 L15.095,16.25 L16.265,15.575 C16.085,15.059 15.7865,14.6675 15.3695,14.4005 C14.9525,14.1335 14.441,14 13.835,14 C13.133,14 12.5675,14.171 12.1385,14.513 C11.7095,14.855 11.495,15.278 11.495,15.782 C11.495,16.358 11.6885,16.814 12.0755,17.15 C12.4625,17.486 13.004,17.702 13.7,17.798 C14.24,17.876 14.6075,17.975 14.8025,18.095 C14.9975,18.215 15.095,18.386 15.095,18.608 C15.095,18.8 14.9975,18.95 14.8025,19.058 C14.6075,19.166 14.345,19.22 14.015,19.22 C13.571,19.22 13.1915,19.1015 12.8765,18.8645 C12.5615,18.6275 12.341,18.281 12.215,17.825 L12.215,17.825 L11,18.59 C11.27,19.274 11.669,19.76 12.197,20.048 C12.725,20.336 13.316,20.48 13.97,20.48 Z M18.461,20.39 L18.947,19.085 L21.845,19.085 L22.331,20.39 L23.906,20.39 L21.431,14.09 L19.361,14.09 L16.886,20.39 L18.461,20.39 Z M21.359,17.78 L19.433,17.78 L20.396,15.206 L21.359,17.78 Z M27.425,20.39 L29.747,14.09 L28.181,14.09 L26.381,19.283 L24.581,14.09 L23.015,14.09 L25.337,20.39 L27.425,20.39 Z M35.354,20.39 L35.354,19.085 L31.835,19.085 L31.835,17.825 L34.994,17.825 L34.994,16.52 L31.835,16.52 L31.835,15.395 L35.264,15.395 L35.264,14.09 L30.395,14.09 L30.395,20.39 L35.354,20.39 Z" id="SAVE" fill="#3F0791"></path>
            </g>
        </g>
    </g>
</svg>